<?xml version="1.0" encoding="iso-8859-1"?>
<!-- Generator: Adobe Illustrator 19.0.0, SVG Export Plug-In . SVG Version: 6.00 Build 0)  -->
<svg version="1.1" id="Capa_1" xmlns="http://www.w3.org/2000/svg" xmlns:xlink="http://www.w3.org/1999/xlink" x="0px" y="0px"
	 viewBox="0 0 512 512" style="enable-background:new 0 0 512 512;" xml:space="preserve">
<path style="fill:#7D8AFF;" d="M481.884,303.824l10.926-19.805l-74.769,1.462l38.64,64.024l10.336-18.734
	c8.09,7.797,14.983,17.68,14.983,28.729c0,40.204-92.814,85-226,85c-133.185,0-226-44.796-226-85
	c0-23.543,31.939-48.409,83.354-64.894l-9.159-28.567c-30.766,9.864-55.411,22.34-73.252,37.083C10.7,319.849,0,339.344,0,359.5
	c0,33.17,28.354,63.203,79.838,84.565C127.137,463.691,189.699,474.5,256,474.5s128.862-10.809,176.161-30.435
	C483.646,422.703,512,392.67,512,359.5C512,345.279,506.546,324.572,481.884,303.824z"/>
<path style="fill:#6E76E5;" d="M481.884,303.824l10.926-19.805l-74.769,1.462l38.64,64.024l10.336-18.734
	c8.09,7.797,14.983,17.68,14.983,28.729c0,40.204-92.814,85-226,85v30c66.301,0,128.862-10.809,176.161-30.435
	C483.646,422.703,512,392.67,512,359.5C512,345.279,506.546,324.572,481.884,303.824z"/>
<path style="fill:#FFDC40;" d="M256,412.141l-162.225-93.66V131.16L256,37.5l162.225,93.66v187.32L256,412.141z"/>
<polygon style="fill:#FFAB15;" points="418.224,131.16 256,37.5 93.776,131.16 256,224.821 256,412.141 418.225,318.481 
	418.225,131.16 "/>
<polygon style="fill:#FF9400;" points="418.224,131.16 256,224.821 256,412.141 418.225,318.481 418.225,131.16 "/>
<g>
</g>
<g>
</g>
<g>
</g>
<g>
</g>
<g>
</g>
<g>
</g>
<g>
</g>
<g>
</g>
<g>
</g>
<g>
</g>
<g>
</g>
<g>
</g>
<g>
</g>
<g>
</g>
<g>
</g>
</svg>
